<svg width="85" height="85" viewBox="0 0 85 85" fill="none" xmlns="http://www.w3.org/2000/svg">
<g opacity="1">
<path d="M35.4168 49.5833C32.4654 49.5833 29.9567 48.5503 27.8907 46.4844C25.8247 44.4184 24.7918 41.9097 24.7918 38.9583C24.7918 37.6597 24.9984 36.4343 25.4115 35.2821C25.8247 34.1299 26.4445 33.0827 27.2709 32.1406C27.0348 31.5503 26.8577 30.9306 26.7397 30.2812C26.6216 29.6319 26.5626 28.9826 26.5626 28.3333C26.5626 26.0903 27.1682 24.0975 28.3795 22.355C29.5907 20.6125 31.1691 19.3304 33.1147 18.5087C34.2952 17.1511 35.6824 16.0886 37.2761 15.3212C38.8699 14.5539 40.6112 14.169 42.5001 14.1667C44.389 14.1667 46.1303 14.5503 47.724 15.3177C49.3178 16.0851 50.7049 17.1476 51.8855 18.5052C53.8334 19.3316 55.413 20.616 56.6243 22.3585C57.8355 24.101 58.4399 26.0926 58.4376 28.3333C58.4376 28.9826 58.3786 29.6319 58.2605 30.2812C58.1424 30.9306 57.9654 31.5503 57.7293 32.1406C58.5556 33.0851 59.1754 34.1334 59.5886 35.2856C60.0018 36.4378 60.2084 37.6621 60.2084 38.9583C60.2084 41.9097 59.1754 44.4184 57.1095 46.4844C55.0435 48.5503 52.5348 49.5833 49.5834 49.5833H35.4168ZM21.2501 77.9167C19.3022 77.9167 17.634 77.2225 16.2457 75.8342C14.8574 74.4458 14.1644 72.7789 14.1668 70.8333V68C14.1668 65.9931 14.6838 64.1478 15.718 62.4644C16.7522 60.7809 18.124 59.4976 19.8334 58.6146C23.4931 56.7847 27.2119 55.4117 30.9897 54.4956C34.7674 53.5795 38.6043 53.1226 42.5001 53.125C46.3959 53.125 50.2327 53.5831 54.0105 54.4992C57.7883 55.4153 61.507 56.7871 65.1668 58.6146C66.8786 59.5 68.2515 60.7844 69.2857 62.4679C70.3199 64.1514 70.8358 65.9954 70.8334 68V70.8333C70.8334 72.7812 70.1393 74.4494 68.7509 75.8377C67.3626 77.226 65.6956 77.919 63.7501 77.9167H21.2501Z" fill="#1E5631"/>
</g>
</svg>
