<svg width="71" height="71" viewBox="0 0 71 71" fill="none" xmlns="http://www.w3.org/2000/svg">
<path d="M27.9705 26.625C29.7597 24.4595 32.4684 23.075 35.5001 23.075C38.5318 23.075 41.2404 24.4595 43.0296 26.625C44.2076 28.0532 44.9552 29.7869 45.1851 31.6239C45.4151 33.4609 45.1181 35.3254 44.3286 36.9999C43.5391 38.6745 42.2897 40.09 40.7262 41.0814C39.1628 42.0728 37.3496 42.5992 35.4983 42.5992C33.647 42.5992 31.8338 42.0728 30.2703 41.0814C28.7068 40.09 27.4575 38.6745 26.668 36.9999C25.8785 35.3254 25.5814 33.4609 25.8114 31.6239C26.0414 29.7869 26.789 28.0532 27.9669 26.625H27.9705ZM48.8126 32.8375C48.8126 30.5939 48.2588 28.4781 47.279 26.625H62.1251C63.5373 26.625 64.8918 27.186 65.8904 28.1847C66.889 29.1833 67.4501 30.5377 67.4501 31.95V33.725C67.4501 39.3589 63.1688 45.1276 55.6818 47.1582C54.9124 45.7761 53.7876 44.6248 52.4238 43.8234C51.0601 43.0219 49.5069 42.5996 47.9251 42.6H44.5526C45.8981 41.355 46.9713 39.8449 47.7045 38.1647C48.4376 36.4845 48.8149 34.6707 48.8126 32.8375ZM47.9251 46.15C48.6249 46.1481 49.3182 46.2846 49.9651 46.5515C50.612 46.8185 51.1997 47.2106 51.6946 47.7055C52.1894 48.2003 52.5816 48.7881 52.8485 49.435C53.1155 50.0819 53.2519 50.7752 53.2501 51.475V53.25C53.2501 60.2471 46.6471 67.45 35.5001 67.45C24.353 67.45 17.75 60.2471 17.75 53.25V51.475C17.7482 50.7752 17.8846 50.0819 18.1516 49.435C18.4185 48.7881 18.8107 48.2003 19.3055 47.7055C19.8004 47.2106 20.3881 46.8185 21.035 46.5515C21.682 46.2846 22.3752 46.1481 23.075 46.15H47.9251ZM3.55005 33.725C3.55005 39.3589 7.83135 45.1276 15.3183 47.1582C16.0877 45.7761 17.2125 44.6248 18.5763 43.8234C19.94 43.0219 21.4932 42.5996 23.075 42.6H26.4475C25.102 41.355 24.0288 39.8449 23.2956 38.1647C22.5625 36.4845 22.1852 34.6707 22.1875 32.8375C22.1875 30.5939 22.7414 28.4781 23.7247 26.625H8.87505C7.46277 26.625 6.10834 27.186 5.10971 28.1847C4.11107 29.1833 3.55005 30.5377 3.55005 31.95V33.725ZM31.0626 13.3125C31.0626 10.7233 30.034 8.2402 28.2032 6.40937C26.3724 4.57855 23.8892 3.55 21.3 3.55C18.7109 3.55 16.2277 4.57855 14.3969 6.40937C12.5661 8.2402 11.5375 10.7233 11.5375 13.3125C11.5375 15.9017 12.5661 18.3848 14.3969 20.2156C16.2277 22.0465 18.7109 23.075 21.3 23.075C23.8892 23.075 26.3724 22.0465 28.2032 20.2156C30.034 18.3848 31.0626 15.9017 31.0626 13.3125ZM59.4626 13.3125C59.4626 10.7233 58.434 8.2402 56.6032 6.40937C54.7724 4.57855 52.2892 3.55 49.7001 3.55C47.1109 3.55 44.6277 4.57855 42.7969 6.40937C40.9661 8.2402 39.9376 10.7233 39.9376 13.3125C39.9376 15.9017 40.9661 18.3848 42.7969 20.2156C44.6277 22.0465 47.1109 23.075 49.7001 23.075C52.2892 23.075 54.7724 22.0465 56.6032 20.2156C58.434 18.3848 59.4626 15.9017 59.4626 13.3125Z" fill="#1E5631"/>
</svg>
